STARTFONT 2.1
FONT -ibm-courier-medium-r-normal--10-100-100-100-m-66-iso8859-2
SIZE 10 100 100
FONTBOUNDINGBOX 11 15 -1 -2
COMMENT $Header: courR10.bdf,v 1.1 96/01/22 23:46:57 peterlin Exp $
COMMENT 
COMMENT Copyright International Business Machines,Corp. 1991
COMMENT IBM Courier is a Trademark of the IBM Corporation.
COMMENT 
COMMENT Automatic rendering from Adobe Type 1 outline:
COMMENT Primoz Peterlin <primoz.peterlin@biofiz.mf.uni-lj.si>
COMMENT cour.pfa rendered at 11.000000 points
COMMENT Checksum eb69a063
STARTPROPERTIES 3
FONT_ASCENT 12
FONT_DESCENT 2
DEFAULT_CHAR 32
ENDPROPERTIES
CHARS 191
STARTCHAR space
ENCODING 32
SWIDTH 586 0
DWIDTH 9 0
BBX 0 0 0 1
BITMAP
ENDCHAR
STARTCHAR exclam
ENCODING 33
SWIDTH 586 0
DWIDTH 9 0
BBX 2 8 3 1
BITMAP
40
40
40
40
40
40
c0
c0
ENDCHAR
STARTCHAR quotedbl
ENCODING 34
SWIDTH 586 0
DWIDTH 9 0
BBX 3 4 3 5
BITMAP
a0
a0
a0
a0
ENDCHAR
STARTCHAR numbersign
ENCODING 35
SWIDTH 586 0
DWIDTH 9 0
BBX 7 11 1 0
BITMAP
24
24
24
24
fe
28
28
fe
48
48
48
ENDCHAR
STARTCHAR dollar
ENCODING 36
SWIDTH 586 0
DWIDTH 9 0
BBX 6 12 1 -1
BITMAP
10
10
3c
54
54
30
1c
94
d4
f8
10
10
ENDCHAR
STARTCHAR percent
ENCODING 37
SWIDTH 586 0
DWIDTH 9 0
BBX 7 9 1 1
BITMAP
e0
90
90
7c
70
4c
12
12
0c
ENDCHAR
STARTCHAR ampersand
ENCODING 38
SWIDTH 586 0
DWIDTH 9 0
BBX 7 8 1 1
BITMAP
38
40
60
26
54
8c
88
76
ENDCHAR
STARTCHAR quoteright
ENCODING 39
SWIDTH 586 0
DWIDTH 9 0
BBX 3 4 3 5
BITMAP
40
40
c0
80
ENDCHAR
STARTCHAR parenleft
ENCODING 40
SWIDTH 586 0
DWIDTH 9 0
BBX 3 11 4 0
BITMAP
20
40
40
80
80
80
80
80
40
40
20
ENDCHAR
STARTCHAR parenright
ENCODING 41
SWIDTH 586 0
DWIDTH 9 0
BBX 3 11 2 0
BITMAP
80
40
40
20
20
20
20
20
40
40
80
ENDCHAR
STARTCHAR asterisk
ENCODING 42
SWIDTH 586 0
DWIDTH 9 0
BBX 6 5 1 4
BITMAP
20
a4
f8
30
48
ENDCHAR
STARTCHAR plus
ENCODING 43
SWIDTH 586 0
DWIDTH 9 0
BBX 7 7 1 2
BITMAP
10
10
10
fe
10
10
10
ENDCHAR
STARTCHAR comma
ENCODING 44
SWIDTH 586 0
DWIDTH 9 0
BBX 3 4 3 -1
BITMAP
60
40
c0
80
ENDCHAR
STARTCHAR minus
ENCODING 45
SWIDTH 586 0
DWIDTH 9 0
BBX 7 1 1 5
BITMAP
fe
ENDCHAR
STARTCHAR period
ENCODING 46
SWIDTH 586 0
DWIDTH 9 0
BBX 2 2 3 1
BITMAP
c0
c0
ENDCHAR
STARTCHAR slash
ENCODING 47
SWIDTH 586 0
DWIDTH 9 0
BBX 6 13 1 -1
BITMAP
04
04
08
08
10
10
10
20
20
40
40
80
80
ENDCHAR
STARTCHAR zero
ENCODING 48
SWIDTH 586 0
DWIDTH 9 0
BBX 5 9 2 1
BITMAP
70
88
88
88
88
88
88
88
70
ENDCHAR
STARTCHAR one
ENCODING 49
SWIDTH 586 0
DWIDTH 9 0
BBX 6 9 2 1
BITMAP
60
a0
20
20
20
20
20
20
fc
ENDCHAR
STARTCHAR two
ENCODING 50
SWIDTH 586 0
DWIDTH 9 0
BBX 6 9 1 1
BITMAP
78
84
04
04
08
10
20
44
fc
ENDCHAR
STARTCHAR three
ENCODING 51
SWIDTH 586 0
DWIDTH 9 0
BBX 6 9 1 1
BITMAP
78
04
04
08
18
04
04
04
f8
ENDCHAR
STARTCHAR four
ENCODING 52
SWIDTH 586 0
DWIDTH 9 0
BBX 6 9 1 1
BITMAP
08
18
28
28
48
88
fc
08
3c
ENDCHAR
STARTCHAR five
ENCODING 53
SWIDTH 586 0
DWIDTH 9 0
BBX 6 9 1 1
BITMAP
78
40
40
78
44
04
04
04
78
ENDCHAR
STARTCHAR six
ENCODING 54
SWIDTH 586 0
DWIDTH 9 0
BBX 6 9 1 1
BITMAP
3c
20
40
b8
cc
84
84
44
38
ENDCHAR
STARTCHAR seven
ENCODING 55
SWIDTH 586 0
DWIDTH 9 0
BBX 6 9 1 1
BITMAP
fc
84
0c
08
08
18
10
10
10
ENDCHAR
STARTCHAR eight
ENCODING 56
SWIDTH 586 0
DWIDTH 9 0
BBX 5 9 2 1
BITMAP
70
88
88
88
70
88
88
88
70
ENDCHAR
STARTCHAR nine
ENCODING 57
SWIDTH 586 0
DWIDTH 9 0
BBX 6 9 1 1
BITMAP
78
8c
84
84
7c
04
08
08
f0
ENDCHAR
STARTCHAR colon
ENCODING 58
SWIDTH 586 0
DWIDTH 9 0
BBX 2 6 3 1
BITMAP
c0
c0
00
00
c0
c0
ENDCHAR
STARTCHAR semicolon
ENCODING 59
SWIDTH 586 0
DWIDTH 9 0
BBX 2 8 3 -1
BITMAP
c0
c0
00
00
c0
80
80
80
ENDCHAR
STARTCHAR less
ENCODING 60
SWIDTH 586 0
DWIDTH 9 0
BBX 7 7 1 2
BITMAP
06
18
20
c0
30
0c
02
ENDCHAR
STARTCHAR equal
ENCODING 61
SWIDTH 586 0
DWIDTH 9 0
BBX 7 3 1 4
BITMAP
fe
00
fe
ENDCHAR
STARTCHAR greater
ENCODING 62
SWIDTH 586 0
DWIDTH 9 0
BBX 7 7 1 2
BITMAP
c0
30
08
06
38
e0
80
ENDCHAR
STARTCHAR question
ENCODING 63
SWIDTH 586 0
DWIDTH 9 0
BBX 5 8 2 1
BITMAP
f8
08
08
10
20
00
60
60
ENDCHAR
STARTCHAR at
ENCODING 64
SWIDTH 586 0
DWIDTH 9 0
BBX 9 8 0 1
BITMAP
3e00
6100
8a80
9480
a480
bd00
4600
3f00
ENDCHAR
STARTCHAR A
ENCODING 65
SWIDTH 586 0
DWIDTH 9 0
BBX 9 8 0 1
BITMAP
3c00
1400
1200
2200
3e00
4100
4100
e380
ENDCHAR
STARTCHAR B
ENCODING 66
SWIDTH 586 0
DWIDTH 9 0
BBX 7 8 1 1
BITMAP
fc
42
42
7c
46
42
42
fc
ENDCHAR
STARTCHAR C
ENCODING 67
SWIDTH 586 0
DWIDTH 9 0
BBX 8 8 1 1
BITMAP
3e
42
80
80
80
80
43
3c
ENDCHAR
STARTCHAR D
ENCODING 68
SWIDTH 586 0
DWIDTH 9 0
BBX 7 8 1 1
BITMAP
fc
42
42
42
42
42
44
f8
ENDCHAR
STARTCHAR E
ENCODING 69
SWIDTH 586 0
DWIDTH 9 0
BBX 7 8 1 1
BITMAP
fe
42
48
78
48
42
42
fe
ENDCHAR
STARTCHAR F
ENCODING 70
SWIDTH 586 0
DWIDTH 9 0
BBX 7 8 1 1
BITMAP
fe
42
48
78
48
40
40
f0
ENDCHAR
STARTCHAR G
ENCODING 71
SWIDTH 586 0
DWIDTH 9 0
BBX 8 8 1 1
BITMAP
3e
42
80
80
8f
82
42
3c
ENDCHAR
STARTCHAR H
ENCODING 72
SWIDTH 586 0
DWIDTH 9 0
BBX 7 8 1 1
BITMAP
ee
44
44
7c
44
44
44
ee
ENDCHAR
STARTCHAR I
ENCODING 73
SWIDTH 586 0
DWIDTH 9 0
BBX 6 8 2 1
BITMAP
fc
20
20
20
20
20
20
fc
ENDCHAR
STARTCHAR J
ENCODING 74
SWIDTH 586 0
DWIDTH 9 0
BBX 8 8 1 1
BITMAP
3f
04
04
04
84
84
84
78
ENDCHAR
STARTCHAR K
ENCODING 75
SWIDTH 586 0
DWIDTH 9 0
BBX 8 8 1 1
BITMAP
ee
44
58
70
48
48
44
e7
ENDCHAR
STARTCHAR L
ENCODING 76
SWIDTH 586 0
DWIDTH 9 0
BBX 7 8 1 1
BITMAP
f0
40
40
40
42
42
42
fe
ENDCHAR
STARTCHAR M
ENCODING 77
SWIDTH 586 0
DWIDTH 9 0
BBX 9 8 0 1
BITMAP
e380
6300
5300
5500
5500
4900
4100
e380
ENDCHAR
STARTCHAR N
ENCODING 78
SWIDTH 586 0
DWIDTH 9 0
BBX 9 8 0 1
BITMAP
e380
5100
5100
4900
4500
4500
4300
f300
ENDCHAR
STARTCHAR O
ENCODING 79
SWIDTH 586 0
DWIDTH 9 0
BBX 7 8 1 1
BITMAP
38
44
82
82
82
82
44
38
ENDCHAR
STARTCHAR P
ENCODING 80
SWIDTH 586 0
DWIDTH 9 0
BBX 7 8 1 1
BITMAP
fc
42
42
42
7c
40
40
f0
ENDCHAR
STARTCHAR Q
ENCODING 81
SWIDTH 586 0
DWIDTH 9 0
BBX 7 10 1 -1
BITMAP
38
44
82
82
82
82
44
78
30
4e
ENDCHAR
STARTCHAR R
ENCODING 82
SWIDTH 586 0
DWIDTH 9 0
BBX 8 8 1 1
BITMAP
fc
42
46
78
48
4c
46
e3
ENDCHAR
STARTCHAR S
ENCODING 83
SWIDTH 586 0
DWIDTH 9 0
BBX 8 8 1 1
BITMAP
7d
82
80
78
04
82
c2
bc
ENDCHAR
STARTCHAR T
ENCODING 84
SWIDTH 586 0
DWIDTH 9 0
BBX 7 8 1 1
BITMAP
fe
92
92
10
10
10
10
7c
ENDCHAR
STARTCHAR U
ENCODING 85
SWIDTH 586 0
DWIDTH 9 0
BBX 9 8 0 1
BITMAP
f780
4100
4100
4100
4100
4100
6100
3e00
ENDCHAR
STARTCHAR V
ENCODING 86
SWIDTH 586 0
DWIDTH 9 0
BBX 9 8 0 1
BITMAP
e380
4100
2100
2200
1200
1400
1400
0800
ENDCHAR
STARTCHAR W
ENCODING 87
SWIDTH 586 0
DWIDTH 9 0
BBX 9 8 0 1
BITMAP
e380
4900
4900
5500
5500
5500
6500
2200
ENDCHAR
STARTCHAR X
ENCODING 88
SWIDTH 586 0
DWIDTH 9 0
BBX 7 8 1 1
BITMAP
ee
44
28
10
28
28
44
ee
ENDCHAR
STARTCHAR Y
ENCODING 89
SWIDTH 586 0
DWIDTH 9 0
BBX 9 8 0 1
BITMAP
e380
4100
2200
1400
0800
0800
0800
3e00
ENDCHAR
STARTCHAR Z
ENCODING 90
SWIDTH 586 0
DWIDTH 9 0
BBX 7 8 1 1
BITMAP
fe
84
08
10
20
22
42
fe
ENDCHAR
STARTCHAR bracketleft
ENCODING 91
SWIDTH 586 0
DWIDTH 9 0
BBX 2 12 5 -1
BITMAP
c0
80
80
80
80
80
80
80
80
80
80
c0
ENDCHAR
STARTCHAR backslash
ENCODING 92
SWIDTH 586 0
DWIDTH 9 0
BBX 6 13 2 -1
BITMAP
80
40
40
40
20
20
10
10
08
08
08
04
04
ENDCHAR
STARTCHAR bracketright
ENCODING 93
SWIDTH 586 0
DWIDTH 9 0
BBX 2 12 2 -1
BITMAP
c0
40
40
40
40
40
40
40
40
40
40
c0
ENDCHAR
STARTCHAR asciicircum
ENCODING 94
SWIDTH 586 0
DWIDTH 9 0
BBX 7 6 1 3
BITMAP
10
28
28
44
c4
82
ENDCHAR
STARTCHAR underscore
ENCODING 95
SWIDTH 586 0
DWIDTH 9 0
BBX 10 1 -1 -1
BITMAP
ffc0
ENDCHAR
STARTCHAR quoteleft
ENCODING 96
SWIDTH 586 0
DWIDTH 9 0
BBX 3 4 2 5
BITMAP
20
60
40
40
ENDCHAR
STARTCHAR a
ENCODING 97
SWIDTH 586 0
DWIDTH 9 0
BBX 7 6 1 1
BITMAP
7c
04
7c
84
8c
76
ENDCHAR
STARTCHAR b
ENCODING 98
SWIDTH 586 0
DWIDTH 9 0
BBX 8 9 0 1
BITMAP
c0
40
40
5e
61
41
41
62
de
ENDCHAR
STARTCHAR c
ENCODING 99
SWIDTH 586 0
DWIDTH 9 0
BBX 7 6 1 1
BITMAP
7e
c2
80
80
42
3c
ENDCHAR
STARTCHAR d
ENCODING 100
SWIDTH 586 0
DWIDTH 9 0
BBX 8 9 1 1
BITMAP
0a
02
02
7a
86
82
82
c6
7b
ENDCHAR
STARTCHAR e
ENCODING 101
SWIDTH 586 0
DWIDTH 9 0
BBX 8 6 1 1
BITMAP
7c
82
fe
80
41
3e
ENDCHAR
STARTCHAR f
ENCODING 102
SWIDTH 586 0
DWIDTH 9 0
BBX 7 9 1 1
BITMAP
3c
20
20
fc
20
20
20
20
fc
ENDCHAR
STARTCHAR g
ENCODING 103
SWIDTH 586 0
DWIDTH 9 0
BBX 7 9 1 -2
BITMAP
7e
84
84
84
4c
74
04
0c
38
ENDCHAR
STARTCHAR h
ENCODING 104
SWIDTH 586 0
DWIDTH 9 0
BBX 9 9 0 1
BITMAP
6000
2000
2000
3e00
2200
2200
2200
2200
7780
ENDCHAR
STARTCHAR i
ENCODING 105
SWIDTH 586 0
DWIDTH 9 0
BBX 5 10 2 1
BITMAP
20
20
00
00
e0
20
20
20
20
f8
ENDCHAR
STARTCHAR j
ENCODING 106
SWIDTH 586 0
DWIDTH 9 0
BBX 5 12 1 -1
BITMAP
08
08
00
00
f8
08
08
08
08
08
08
f0
ENDCHAR
STARTCHAR k
ENCODING 107
SWIDTH 586 0
DWIDTH 9 0
BBX 7 9 1 1
BITMAP
c0
40
40
4e
58
70
48
48
ce
ENDCHAR
STARTCHAR l
ENCODING 108
SWIDTH 586 0
DWIDTH 9 0
BBX 5 9 2 1
BITMAP
e0
20
20
20
20
20
20
20
f8
ENDCHAR
STARTCHAR m
ENCODING 109
SWIDTH 586 0
DWIDTH 9 0
BBX 9 6 0 1
BITMAP
fe00
4900
4900
4900
4900
ed80
ENDCHAR
STARTCHAR n
ENCODING 110
SWIDTH 586 0
DWIDTH 9 0
BBX 8 6 1 1
BITMAP
fc
44
44
44
44
ef
ENDCHAR
STARTCHAR o
ENCODING 111
SWIDTH 586 0
DWIDTH 9 0
BBX 7 6 1 1
BITMAP
7c
82
82
82
44
38
ENDCHAR
STARTCHAR p
ENCODING 112
SWIDTH 586 0
DWIDTH 9 0
BBX 8 9 0 -2
BITMAP
fe
61
41
41
62
5c
40
40
f0
ENDCHAR
STARTCHAR q
ENCODING 113
SWIDTH 586 0
DWIDTH 9 0
BBX 8 9 1 -2
BITMAP
7b
86
82
82
46
3a
02
02
0f
ENDCHAR
STARTCHAR r
ENCODING 114
SWIDTH 586 0
DWIDTH 9 0
BBX 8 6 1 1
BITMAP
ee
30
20
20
20
fc
ENDCHAR
STARTCHAR s
ENCODING 115
SWIDTH 586 0
DWIDTH 9 0
BBX 7 6 1 1
BITMAP
fc
86
78
86
c2
bc
ENDCHAR
STARTCHAR t
ENCODING 116
SWIDTH 586 0
DWIDTH 9 0
BBX 6 8 2 1
BITMAP
80
80
f8
80
80
80
80
7c
ENDCHAR
STARTCHAR u
ENCODING 117
SWIDTH 586 0
DWIDTH 9 0
BBX 8 6 0 1
BITMAP
e6
22
22
22
22
1f
ENDCHAR
STARTCHAR v
ENCODING 118
SWIDTH 586 0
DWIDTH 9 0
BBX 9 6 0 1
BITMAP
e380
4100
2200
1200
1400
0800
ENDCHAR
STARTCHAR w
ENCODING 119
SWIDTH 586 0
DWIDTH 9 0
BBX 9 6 0 1
BITMAP
e380
4900
5500
5500
3600
2200
ENDCHAR
STARTCHAR x
ENCODING 120
SWIDTH 586 0
DWIDTH 9 0
BBX 9 6 0 1
BITMAP
7700
1400
0800
1400
2200
e380
ENDCHAR
STARTCHAR y
ENCODING 121
SWIDTH 586 0
DWIDTH 9 0
BBX 9 8 0 -1
BITMAP
e380
4100
2200
1400
1400
0800
1000
f800
ENDCHAR
STARTCHAR z
ENCODING 122
SWIDTH 586 0
DWIDTH 9 0
BBX 6 6 2 1
BITMAP
fc
88
10
60
84
fc
ENDCHAR
STARTCHAR braceleft
ENCODING 123
SWIDTH 586 0
DWIDTH 9 0
BBX 3 12 4 -1
BITMAP
60
80
80
c0
40
80
40
40
80
80
80
60
ENDCHAR
STARTCHAR bar
ENCODING 124
SWIDTH 586 0
DWIDTH 9 0
BBX 1 13 4 -2
BITMAP
80
80
80
80
80
80
80
80
80
80
80
80
80
ENDCHAR
STARTCHAR braceright
ENCODING 125
SWIDTH 586 0
DWIDTH 9 0
BBX 3 12 2 -1
BITMAP
c0
20
20
40
40
20
40
40
20
20
20
c0
ENDCHAR
STARTCHAR asciitilde
ENCODING 126
SWIDTH 586 0
DWIDTH 9 0
BBX 6 2 2 5
BITMAP
64
98
ENDCHAR
STARTCHAR space
ENCODING 160
SWIDTH 586 0
DWIDTH 9 0
BBX 0 0 0 1
BITMAP
ENDCHAR
STARTCHAR Aogonek
ENCODING 161
SWIDTH 586 0
DWIDTH 9 0
BBX 9 10 0 -1
BITMAP
3c00
1400
1400
1200
3e00
4100
4100
e380
0200
0300
ENDCHAR
STARTCHAR breve
ENCODING 162
SWIDTH 586 0
DWIDTH 9 0
BBX 5 2 2 8
BITMAP
c8
30
ENDCHAR
STARTCHAR Lslash
ENCODING 163
SWIDTH 586 0
DWIDTH 9 0
BBX 7 8 1 1
BITMAP
f0
40
58
e0
c2
42
42
fe
ENDCHAR
STARTCHAR currency
ENCODING 164
SWIDTH 586 0
DWIDTH 9 0
BBX 7 7 1 2
BITMAP
44
7c
44
44
44
48
fe
ENDCHAR
STARTCHAR Lcaron
ENCODING 165
SWIDTH 586 0
DWIDTH 9 0
BBX 7 9 1 1
BITMAP
04
f8
40
40
40
42
42
42
fe
ENDCHAR
STARTCHAR Sacute
ENCODING 166
SWIDTH 586 0
DWIDTH 9 0
BBX 8 11 1 1
BITMAP
10
20
00
7d
82
80
78
04
82
c2
bc
ENDCHAR
STARTCHAR section
ENCODING 167
SWIDTH 586 0
DWIDTH 9 0
BBX 5 10 2 -1
BITMAP
78
48
60
90
88
68
10
90
90
e0
ENDCHAR
STARTCHAR dieresis
ENCODING 168
SWIDTH 586 0
DWIDTH 9 0
BBX 3 2 3 9
BITMAP
a0
a0
ENDCHAR
STARTCHAR Scaron
ENCODING 169
SWIDTH 586 0
DWIDTH 9 0
BBX 8 12 1 1
BITMAP
48
30
00
00
7d
82
80
78
04
82
c2
bc
ENDCHAR
STARTCHAR Scedilla
ENCODING 170
SWIDTH 586 0
DWIDTH 9 0
BBX 8 10 1 -1
BITMAP
7f
86
80
78
04
82
c2
bc
18
38
ENDCHAR
STARTCHAR Tcaron
ENCODING 171
SWIDTH 586 0
DWIDTH 9 0
BBX 7 12 1 1
BITMAP
48
30
00
00
fe
92
92
10
10
10
10
7c
ENDCHAR
STARTCHAR Zacute
ENCODING 172
SWIDTH 586 0
DWIDTH 9 0
BBX 7 11 1 1
BITMAP
10
20
00
fe
84
08
10
20
22
42
fe
ENDCHAR
STARTCHAR hyphen
ENCODING 173
SWIDTH 586 0
DWIDTH 9 0
BBX 3 1 3 5
BITMAP
e0
ENDCHAR
STARTCHAR Zcaron
ENCODING 174
SWIDTH 586 0
DWIDTH 9 0
BBX 7 12 1 1
BITMAP
48
30
00
00
fe
84
08
10
20
22
42
fe
ENDCHAR
STARTCHAR Zdotaccent
ENCODING 175
SWIDTH 586 0
DWIDTH 9 0
BBX 7 11 1 1
BITMAP
10
00
00
fe
84
08
10
20
22
42
fe
ENDCHAR
STARTCHAR degree
ENCODING 176
SWIDTH 586 0
DWIDTH 9 0
BBX 5 4 2 6
BITMAP
70
88
88
70
ENDCHAR
STARTCHAR aogonek
ENCODING 177
SWIDTH 586 0
DWIDTH 9 0
BBX 7 8 1 -1
BITMAP
7c
04
7c
84
8c
76
04
06
ENDCHAR
STARTCHAR ogonek
ENCODING 178
SWIDTH 586 0
DWIDTH 9 0
BBX 2 2 4 -1
BITMAP
80
80
ENDCHAR
STARTCHAR lslash
ENCODING 179
SWIDTH 586 0
DWIDTH 9 0
BBX 5 9 2 1
BITMAP
e0
20
20
38
e0
a0
20
20
f8
ENDCHAR
STARTCHAR acute
ENCODING 180
SWIDTH 586 0
DWIDTH 9 0
BBX 3 2 3 8
BITMAP
40
80
ENDCHAR
STARTCHAR lcaron
ENCODING 181
SWIDTH 586 0
DWIDTH 9 0
BBX 6 9 2 1
BITMAP
e8
30
20
20
20
20
20
20
f8
ENDCHAR
STARTCHAR sacute
ENCODING 182
SWIDTH 586 0
DWIDTH 9 0
BBX 7 9 1 1
BITMAP
10
20
00
fc
86
78
86
c2
bc
ENDCHAR
STARTCHAR caron
ENCODING 183
SWIDTH 586 0
DWIDTH 9 0
BBX 4 1 2 9
BITMAP
60
ENDCHAR
STARTCHAR cedilla
ENCODING 184
SWIDTH 586 0
DWIDTH 9 0
BBX 3 3 3 -1
BITMAP
40
60
e0
ENDCHAR
STARTCHAR scaron
ENCODING 185
SWIDTH 586 0
DWIDTH 9 0
BBX 7 9 1 1
BITMAP
30
00
00
fc
86
78
86
c2
bc
ENDCHAR
STARTCHAR scedilla
ENCODING 186
SWIDTH 586 0
DWIDTH 9 0
BBX 7 8 1 -1
BITMAP
fc
86
78
86
c2
bc
18
38
ENDCHAR
STARTCHAR tcaron
ENCODING 187
SWIDTH 586 0
DWIDTH 9 0
BBX 6 9 2 1
BITMAP
10
a0
80
f8
80
80
80
80
7c
ENDCHAR
STARTCHAR zacute
ENCODING 188
SWIDTH 586 0
DWIDTH 9 0
BBX 6 9 2 1
BITMAP
20
40
00
fc
88
10
60
84
fc
ENDCHAR
STARTCHAR hungarumlaut
ENCODING 189
SWIDTH 586 0
DWIDTH 9 0
BBX 4 2 3 8
BITMAP
a0
a0
ENDCHAR
STARTCHAR zcaron
ENCODING 190
SWIDTH 586 0
DWIDTH 9 0
BBX 6 9 2 1
BITMAP
60
00
00
fc
88
10
60
84
fc
ENDCHAR
STARTCHAR zdotaccent
ENCODING 191
SWIDTH 586 0
DWIDTH 9 0
BBX 6 9 2 1
BITMAP
20
00
00
fc
88
10
60
84
fc
ENDCHAR
STARTCHAR Racute
ENCODING 192
SWIDTH 586 0
DWIDTH 9 0
BBX 8 11 1 1
BITMAP
10
20
00
fc
42
46
78
48
4c
46
e3
ENDCHAR
STARTCHAR Aacute
ENCODING 193
SWIDTH 586 0
DWIDTH 9 0
BBX 9 11 0 1
BITMAP
0800
1000
0000
3c00
1400
1200
2200
3e00
4100
4100
e380
ENDCHAR
STARTCHAR Acircumflex
ENCODING 194
SWIDTH 586 0
DWIDTH 9 0
BBX 9 11 0 1
BITMAP
1800
0000
0000
3c00
1400
1200
2200
3e00
4100
4100
e380
ENDCHAR
STARTCHAR Abreve
ENCODING 195
SWIDTH 586 0
DWIDTH 9 0
BBX 9 12 0 1
BITMAP
2200
3600
0c00
0000
3c00
1400
1200
2200
3e00
4100
4100
e380
ENDCHAR
STARTCHAR Adieresis
ENCODING 196
SWIDTH 586 0
DWIDTH 9 0
BBX 9 12 0 1
BITMAP
1400
1400
0000
0000
3c00
1400
1200
2200
3e00
4100
4100
e380
ENDCHAR
STARTCHAR Lacute
ENCODING 197
SWIDTH 586 0
DWIDTH 9 0
BBX 7 11 1 1
BITMAP
20
40
00
f0
40
40
40
42
42
42
fe
ENDCHAR
STARTCHAR Cacute
ENCODING 198
SWIDTH 586 0
DWIDTH 9 0
BBX 8 11 1 1
BITMAP
08
10
00
3e
42
80
80
80
80
43
3c
ENDCHAR
STARTCHAR Ccedilla
ENCODING 199
SWIDTH 586 0
DWIDTH 9 0
BBX 8 10 1 -1
BITMAP
3e
46
80
80
80
80
43
7c
08
1c
ENDCHAR
STARTCHAR Ccaron
ENCODING 200
SWIDTH 586 0
DWIDTH 9 0
BBX 8 12 1 1
BITMAP
24
18
00
00
3e
42
80
80
80
80
43
3c
ENDCHAR
STARTCHAR Eacute
ENCODING 201
SWIDTH 586 0
DWIDTH 9 0
BBX 7 11 1 1
BITMAP
10
20
00
fe
42
48
78
48
42
42
fe
ENDCHAR
STARTCHAR Eogonek
ENCODING 202
SWIDTH 586 0
DWIDTH 9 0
BBX 7 10 1 -1
BITMAP
fe
42
48
78
48
42
42
fe
08
0c
ENDCHAR
STARTCHAR Edieresis
ENCODING 203
SWIDTH 586 0
DWIDTH 9 0
BBX 7 12 1 1
BITMAP
28
28
00
00
fe
42
48
78
48
42
42
fe
ENDCHAR
STARTCHAR Ecaron
ENCODING 204
SWIDTH 586 0
DWIDTH 9 0
BBX 7 12 1 1
BITMAP
48
30
00
00
fe
42
48
78
48
42
42
fe
ENDCHAR
STARTCHAR Iacute
ENCODING 205
SWIDTH 586 0
DWIDTH 9 0
BBX 6 11 2 1
BITMAP
20
40
00
fc
20
20
20
20
20
20
fc
ENDCHAR
STARTCHAR Icircumflex
ENCODING 206
SWIDTH 586 0
DWIDTH 9 0
BBX 6 11 2 1
BITMAP
60
00
00
fc
20
20
20
20
20
20
fc
ENDCHAR
STARTCHAR Dcaron
ENCODING 207
SWIDTH 586 0
DWIDTH 9 0
BBX 7 12 1 1
BITMAP
48
30
00
00
fc
42
42
42
42
42
44
f8
ENDCHAR
STARTCHAR Eth
ENCODING 208
SWIDTH 586 0
DWIDTH 9 0
BBX 7 8 1 1
BITMAP
fc
42
42
f2
42
42
44
f8
ENDCHAR
STARTCHAR Nacute
ENCODING 209
SWIDTH 586 0
DWIDTH 9 0
BBX 9 11 0 1
BITMAP
0800
1000
0000
e380
5100
5100
4900
4500
4500
4300
f300
ENDCHAR
STARTCHAR Ncaron
ENCODING 210
SWIDTH 586 0
DWIDTH 9 0
BBX 9 12 0 1
BITMAP
2400
1800
0000
0000
e380
5100
5100
4900
4500
4500
4300
f300
ENDCHAR
STARTCHAR Oacute
ENCODING 211
SWIDTH 586 0
DWIDTH 9 0
BBX 7 11 1 1
BITMAP
10
20
00
38
44
82
82
82
82
44
38
ENDCHAR
STARTCHAR Ocircumflex
ENCODING 212
SWIDTH 586 0
DWIDTH 9 0
BBX 7 11 1 1
BITMAP
30
00
00
38
44
82
82
82
82
44
38
ENDCHAR
STARTCHAR Ohungarumlaut
ENCODING 213
SWIDTH 586 0
DWIDTH 9 0
BBX 7 11 1 1
BITMAP
28
28
00
38
44
82
82
82
82
44
38
ENDCHAR
STARTCHAR Odieresis
ENCODING 214
SWIDTH 586 0
DWIDTH 9 0
BBX 7 12 1 1
BITMAP
28
28
00
00
38
44
82
82
82
82
44
38
ENDCHAR
STARTCHAR multiply
ENCODING 215
SWIDTH 586 0
DWIDTH 9 0
BBX 5 5 2 3
BITMAP
88
58
20
50
88
ENDCHAR
STARTCHAR Rcaron
ENCODING 216
SWIDTH 586 0
DWIDTH 9 0
BBX 8 12 1 1
BITMAP
48
30
00
00
fc
42
46
78
48
4c
46
e3
ENDCHAR
STARTCHAR Uring
ENCODING 217
SWIDTH 586 0
DWIDTH 9 0
BBX 9 12 0 1
BITMAP
0800
1400
0800
0000
f780
4100
4100
4100
4100
4100
6100
3e00
ENDCHAR
STARTCHAR Uacute
ENCODING 218
SWIDTH 586 0
DWIDTH 9 0
BBX 9 11 0 1
BITMAP
0800
1000
0000
f780
4100
4100
4100
4100
4100
6100
3e00
ENDCHAR
STARTCHAR Uhungarumlaut
ENCODING 219
SWIDTH 586 0
DWIDTH 9 0
BBX 9 11 0 1
BITMAP
1400
1400
0000
f780
4100
4100
4100
4100
4100
6100
3e00
ENDCHAR
STARTCHAR Udieresis
ENCODING 220
SWIDTH 586 0
DWIDTH 9 0
BBX 9 12 0 1
BITMAP
1400
1400
0000
0000
f780
4100
4100
4100
4100
4100
6100
3e00
ENDCHAR
STARTCHAR Yacute
ENCODING 221
SWIDTH 586 0
DWIDTH 9 0
BBX 9 11 0 1
BITMAP
0800
1000
0000
e380
4100
2200
1400
0800
0800
0800
3e00
ENDCHAR
STARTCHAR Tcedilla
ENCODING 222
SWIDTH 586 0
DWIDTH 9 0
BBX 7 10 1 -1
BITMAP
fe
92
92
10
10
10
10
7c
18
38
ENDCHAR
STARTCHAR germandbls
ENCODING 223
SWIDTH 586 0
DWIDTH 9 0
BBX 7 9 1 1
BITMAP
38
44
44
58
44
42
42
42
dc
ENDCHAR
STARTCHAR racute
ENCODING 224
SWIDTH 586 0
DWIDTH 9 0
BBX 8 9 1 1
BITMAP
10
20
00
ee
30
20
20
20
fc
ENDCHAR
STARTCHAR aacute
ENCODING 225
SWIDTH 586 0
DWIDTH 9 0
BBX 7 9 1 1
BITMAP
10
20
00
7c
04
7c
84
8c
76
ENDCHAR
STARTCHAR acircumflex
ENCODING 226
SWIDTH 586 0
DWIDTH 9 0
BBX 7 9 1 1
BITMAP
30
00
00
7c
04
7c
84
8c
76
ENDCHAR
STARTCHAR abreve
ENCODING 227
SWIDTH 586 0
DWIDTH 9 0
BBX 7 9 1 1
BITMAP
64
18
00
7c
04
7c
84
8c
76
ENDCHAR
STARTCHAR adieresis
ENCODING 228
SWIDTH 586 0
DWIDTH 9 0
BBX 7 10 1 1
BITMAP
28
28
00
00
7c
04
7c
84
8c
76
ENDCHAR
STARTCHAR lacute
ENCODING 229
SWIDTH 586 0
DWIDTH 9 0
BBX 5 12 2 1
BITMAP
20
40
00
e0
20
20
20
20
20
20
20
f8
ENDCHAR
STARTCHAR cacute
ENCODING 230
SWIDTH 586 0
DWIDTH 9 0
BBX 7 9 1 1
BITMAP
10
20
00
7e
c2
80
80
42
3c
ENDCHAR
STARTCHAR ccedilla
ENCODING 231
SWIDTH 586 0
DWIDTH 9 0
BBX 7 8 1 -1
BITMAP
7e
c2
80
80
c2
7c
10
18
ENDCHAR
STARTCHAR ccaron
ENCODING 232
SWIDTH 586 0
DWIDTH 9 0
BBX 7 9 1 1
BITMAP
18
00
00
7e
c2
80
80
42
3c
ENDCHAR
STARTCHAR eacute
ENCODING 233
SWIDTH 586 0
DWIDTH 9 0
BBX 8 9 1 1
BITMAP
10
20
00
7c
82
fe
80
41
3e
ENDCHAR
STARTCHAR eogonek
ENCODING 234
SWIDTH 586 0
DWIDTH 9 0
BBX 8 8 1 -1
BITMAP
7c
86
fe
80
c1
7e
10
18
ENDCHAR
STARTCHAR edieresis
ENCODING 235
SWIDTH 586 0
DWIDTH 9 0
BBX 8 10 1 1
BITMAP
28
28
00
00
7c
82
fe
80
41
3e
ENDCHAR
STARTCHAR ecaron
ENCODING 236
SWIDTH 586 0
DWIDTH 9 0
BBX 8 9 1 1
BITMAP
30
00
00
7c
82
fe
80
41
3e
ENDCHAR
STARTCHAR iacute
ENCODING 237
SWIDTH 586 0
DWIDTH 9 0
BBX 5 9 2 1
BITMAP
20
40
00
e0
20
20
20
20
f8
ENDCHAR
STARTCHAR icircumflex
ENCODING 238
SWIDTH 586 0
DWIDTH 9 0
BBX 5 9 2 1
BITMAP
60
00
00
e0
20
20
20
20
f8
ENDCHAR
STARTCHAR dcaron
ENCODING 239
SWIDTH 586 0
DWIDTH 9 0
BBX 9 9 1 1
BITMAP
0b00
0200
0200
7a00
8600
8200
8200
c600
7b00
ENDCHAR
STARTCHAR dbar
ENCODING 240
SWIDTH 586 0
DWIDTH 9 0
BBX 8 9 1 1
BITMAP
0a
3f
02
7a
86
82
82
c6
7b
ENDCHAR
STARTCHAR nacute
ENCODING 241
SWIDTH 586 0
DWIDTH 9 0
BBX 8 9 1 1
BITMAP
10
20
00
fc
44
44
44
44
ef
ENDCHAR
STARTCHAR ncaron
ENCODING 242
SWIDTH 586 0
DWIDTH 9 0
BBX 8 9 1 1
BITMAP
30
00
00
fc
44
44
44
44
ef
ENDCHAR
STARTCHAR oacute
ENCODING 243
SWIDTH 586 0
DWIDTH 9 0
BBX 7 9 1 1
BITMAP
10
20
00
7c
82
82
82
44
38
ENDCHAR
STARTCHAR ocircumflex
ENCODING 244
SWIDTH 586 0
DWIDTH 9 0
BBX 7 9 1 1
BITMAP
30
00
00
7c
82
82
82
44
38
ENDCHAR
STARTCHAR ohungarumlaut
ENCODING 245
SWIDTH 586 0
DWIDTH 9 0
BBX 7 9 1 1
BITMAP
28
28
00
7c
82
82
82
44
38
ENDCHAR
STARTCHAR odieresis
ENCODING 246
SWIDTH 586 0
DWIDTH 9 0
BBX 7 10 1 1
BITMAP
28
28
00
00
7c
82
82
82
44
38
ENDCHAR
STARTCHAR divide
ENCODING 247
SWIDTH 586 0
DWIDTH 9 0
BBX 7 7 1 2
BITMAP
10
00
00
fe
00
00
10
ENDCHAR
STARTCHAR rcaron
ENCODING 248
SWIDTH 586 0
DWIDTH 9 0
BBX 8 9 1 1
BITMAP
30
00
00
ee
30
20
20
20
fc
ENDCHAR
STARTCHAR uring
ENCODING 249
SWIDTH 586 0
DWIDTH 9 0
BBX 8 10 0 1
BITMAP
08
14
08
00
e6
22
22
22
22
1f
ENDCHAR
STARTCHAR uacute
ENCODING 250
SWIDTH 586 0
DWIDTH 9 0
BBX 8 9 0 1
BITMAP
08
10
00
e6
22
22
22
22
1f
ENDCHAR
STARTCHAR uhungarumlaut
ENCODING 251
SWIDTH 586 0
DWIDTH 9 0
BBX 8 9 0 1
BITMAP
14
14
00
e6
22
22
22
22
1f
ENDCHAR
STARTCHAR udieresis
ENCODING 252
SWIDTH 586 0
DWIDTH 9 0
BBX 8 10 0 1
BITMAP
14
14
00
00
e6
22
22
22
22
1f
ENDCHAR
STARTCHAR yacute
ENCODING 253
SWIDTH 586 0
DWIDTH 9 0
BBX 9 11 0 -1
BITMAP
0800
1000
0000
e380
4100
2200
1400
1400
0800
1000
f800
ENDCHAR
STARTCHAR tcedilla
ENCODING 254
SWIDTH 586 0
DWIDTH 9 0
BBX 6 10 2 -1
BITMAP
80
80
f8
80
80
80
80
7c
30
70
ENDCHAR
STARTCHAR dotaccent
ENCODING 255
SWIDTH 586 0
DWIDTH 9 0
BBX 1 1 4 9
BITMAP
80
ENDCHAR
ENDFONT
